<svg width="25" height="22" viewBox="0 0 25 22" fill="none" xmlns="http://www.w3.org/2000/svg">
<path d="M16.0168 5.10169C15.2713 5.10126 14.5291 5.20144 13.8105 5.3995C13.5266 4.93579 13.1815 4.51227 12.7845 4.14032L13.8185 2.66744C13.9506 2.47842 14.0022 2.24485 13.9618 2.01798C13.9215 1.7911 13.7925 1.58946 13.6033 1.4573C13.4141 1.32513 13.18 1.27324 12.9524 1.313C12.7249 1.35277 12.5225 1.48094 12.3895 1.6694L11.3555 3.14227C10.4444 2.68362 9.43227 2.46068 8.4122 2.49391L8.09858 0.719891C8.0788 0.60728 8.03697 0.499659 7.97547 0.403184C7.91397 0.306708 7.83401 0.223269 7.74016 0.157637C7.64631 0.0920052 7.5404 0.0454677 7.42851 0.0206854C7.31661 -0.00409699 7.20091 -0.00663822 7.08803 0.0132072C6.97515 0.0330525 6.8673 0.0748953 6.77064 0.136343C6.67398 0.197791 6.59041 0.277638 6.52472 0.37132C6.45902 0.465002 6.41248 0.570681 6.38775 0.682315C6.36303 0.793949 6.36061 0.909349 6.38064 1.02192L6.69406 2.79488C5.72352 3.1102 4.84893 3.6657 4.15197 4.40952L2.6733 3.37684C2.48379 3.2445 2.24934 3.19268 2.02152 3.23276C1.7937 3.27284 1.59117 3.40154 1.4585 3.59056C1.32582 3.77958 1.27386 4.01342 1.31404 4.24065C1.35422 4.46788 1.48326 4.66988 1.67277 4.80222L3.15118 5.83472C2.68848 6.74217 2.46392 7.75178 2.49846 8.76926L0.72075 9.08185C0.505981 9.11965 0.313196 9.23631 0.180391 9.40885C0.0475867 9.58139 -0.0156029 9.79729 0.00327652 10.014C0.022156 10.2307 0.121735 10.4325 0.282387 10.5796C0.443039 10.7267 0.65311 10.8084 0.871196 10.8087C0.922308 10.8087 0.973322 10.8043 1.02367 10.7955L2.802 10.4827C2.95835 10.9577 3.17278 11.4116 3.44044 11.8342C2.60464 12.6065 2.02168 13.6121 1.76768 14.7199C1.51367 15.8277 1.60041 16.9862 2.01658 18.044C2.43275 19.1019 3.15901 20.0101 4.10055 20.65C5.0421 21.2899 6.1552 21.6318 7.29455 21.6311H16.0168C18.2144 21.6311 20.3221 20.7603 21.876 19.2104C23.43 17.6605 24.303 15.5583 24.303 13.3664C24.303 11.1744 23.43 9.07229 21.876 7.52236C20.3221 5.97243 18.2144 5.10169 16.0168 5.10169V5.10169ZM4.3104 9.35305C4.30944 9.34684 4.30918 9.34071 4.30808 9.3345C4.30689 9.3277 4.30486 9.32128 4.30351 9.31456C4.10734 8.19106 4.36449 7.03578 5.0189 6.10063C5.02276 6.09537 5.02723 6.09086 5.03098 6.0855C5.03519 6.0795 5.03852 6.07318 5.04254 6.06713C5.69937 5.13636 6.69792 4.50174 7.82122 4.30115C7.82931 4.29995 7.83736 4.29939 7.84544 4.29799C7.85305 4.29667 7.86027 4.2944 7.8678 4.2929C8.97682 4.10255 10.1167 4.34761 11.0486 4.97675C11.0662 4.9912 11.0838 5.00558 11.1028 5.01886C11.1166 5.02852 11.1315 5.03535 11.1457 5.04408C11.5363 5.32341 11.8776 5.66555 12.1558 6.05651C10.3805 6.99342 9.00414 8.53819 8.27985 10.4067C7.95451 10.3499 7.62483 10.3214 7.29455 10.3215C6.46239 10.3208 5.64041 10.504 4.88768 10.8579C4.60306 10.3965 4.40728 9.88612 4.3104 9.35305V9.35305Z" fill="white"/>
</svg>
