<svg width="22" height="22" viewBox="0 0 22 22" fill="none" xmlns="http://www.w3.org/2000/svg">
<path d="M21.244 1.51977C21.1838 1.34243 21.0836 1.18132 20.9511 1.04889C20.8187 0.916448 20.6576 0.816226 20.4802 0.755962C19.0016 0.253844 17.4503 -0.0015524 15.8887 7.09887e-06C8.02592 7.09887e-06 1.62908 6.39685 1.62908 14.2596C1.62824 15.5626 1.80597 16.8595 2.15731 18.1141L0.357388 19.9141C0.128434 20.1433 -0.000113494 20.4541 7.51884e-08 20.7782C0.000113645 21.1022 0.128879 21.4129 0.357993 21.642C0.587107 21.8711 0.89782 21.9999 1.22184 22C1.54585 22.0001 1.85666 21.8716 2.08593 21.6426L3.88589 19.8426C5.14054 20.194 6.43743 20.3717 7.74035 20.3709C15.6031 20.3709 22 13.9741 22 6.11128C22.0016 4.54967 21.7462 2.99845 21.244 1.51977ZM7.74035 17.9264C7.13763 17.9261 6.5358 17.88 5.94005 17.7885L15.9382 7.79039C16.1671 7.56111 16.2957 7.25031 16.2955 6.92629C16.2954 6.60228 16.1667 6.29157 15.9375 6.06245C15.7084 5.83334 15.3977 5.70457 15.0737 5.70446C14.7497 5.70435 14.4389 5.83289 14.2096 6.06185L4.21147 16.06C3.91166 14.1038 4.10761 12.1037 4.78138 10.243C5.45514 8.38222 6.58517 6.72033 8.06788 5.40964C9.5506 4.09894 11.3386 3.18135 13.2679 2.74098C15.1973 2.30061 17.2063 2.35153 19.1109 2.88909C19.607 4.64668 19.6892 6.49529 19.3511 8.28999C19.0131 10.0847 18.264 11.7767 17.1625 13.2334C16.061 14.6901 14.6371 15.8719 13.0024 16.6861C11.3677 17.5003 9.56661 17.9248 7.74035 17.9264Z" fill="white"/>
</svg>
