<svg width="25" height="27" viewBox="0 0 25 27" fill="none" xmlns="http://www.w3.org/2000/svg">
<path d="M16.0716 21.6243L13.1469 26.0696C12.9523 26.3653 12.6479 26.5718 12.3007 26.6437C11.9535 26.7155 11.5919 26.6469 11.2954 26.4528C10.999 26.2588 10.7919 25.9552 10.7199 25.6089C10.6478 25.2626 10.7166 24.9019 10.9112 24.6062L13.8359 20.161C14.0305 19.8653 14.3349 19.6588 14.6821 19.5869C15.0293 19.515 15.3909 19.5836 15.6874 19.7777C15.9838 19.9718 16.1909 20.2753 16.2629 20.6216C16.335 20.968 16.2662 21.3286 16.0716 21.6243V21.6243ZM24.0623 8.89049C24.0597 11.2476 23.1197 13.5074 21.4487 15.1741C19.7776 16.8408 17.512 17.7783 15.1488 17.781H13.0015L9.88783 22.5134C9.69327 22.8091 9.3889 23.0156 9.04169 23.0875C8.69448 23.1593 8.33287 23.0907 8.0364 22.8966C7.73993 22.7026 7.53289 22.399 7.46083 22.0527C7.38877 21.7064 7.45758 21.3457 7.65214 21.05L9.80302 17.781H6.23519C5.38554 17.7804 4.54496 17.6067 3.76499 17.2706C2.98502 16.9346 2.28208 16.4431 1.69927 15.8265C1.11647 15.2098 0.66607 14.4809 0.375695 13.6845C0.0853204 12.8881 -0.0389141 12.0409 0.0106077 11.1949C0.0601295 10.3489 0.282364 9.5219 0.663687 8.7646C1.04501 8.00729 1.57739 7.33564 2.22818 6.79083C2.87898 6.24601 3.63447 5.83951 4.44836 5.59623C5.26225 5.35296 6.11738 5.27805 6.96132 5.37608C7.77235 3.49635 9.20871 1.95324 11.028 1.00716C12.8473 0.0610732 14.9381 -0.230047 16.9476 0.182923C18.9571 0.595894 20.7623 1.68767 22.0584 3.274C23.3546 4.86033 24.0624 6.84409 24.0623 8.89049V8.89049ZM21.3883 8.89049C21.3883 7.23996 20.7309 5.65703 19.5608 4.48993C18.3906 3.32283 16.8036 2.66715 15.1488 2.66715C13.4939 2.66715 11.9069 3.32283 10.7368 4.48993C9.56663 5.65703 8.90926 7.23996 8.90926 8.89049C8.90926 9.24418 8.76839 9.58338 8.51765 9.83347C8.26691 10.0836 7.92683 10.2241 7.57222 10.2241C7.21762 10.2241 6.87754 10.0836 6.6268 9.83347C6.37605 9.58338 6.23519 9.24418 6.23519 8.89049C6.23519 8.59069 6.24991 8.29443 6.27936 8.00172C6.26467 8.00155 6.24995 8.00146 6.23519 8.00144C5.28958 8.00144 4.3827 8.37611 3.71405 9.04303C3.0454 9.70994 2.66976 10.6145 2.66976 11.5576C2.66976 12.5008 3.0454 13.4053 3.71405 14.0722C4.3827 14.7392 5.28958 15.1138 6.23519 15.1138H15.1488C16.803 15.112 18.389 14.4557 19.5587 13.289C20.7284 12.1223 21.3864 10.5405 21.3883 8.89049V8.89049Z" fill="white"/>
</svg>
